<?xml version="1.0" encoding="UTF-8" ?>
<!DOCTYPE svg PUBLIC "-//W3C//DTD SVG 1.1//EN" "http://www.w3.org/Graphics/SVG/1.1/DTD/svg11.dtd">
<svg width="281pt" height="180pt" viewBox="0 0 281 180" version="1.1" xmlns="http://www.w3.org/2000/svg">
<g id="#ffffffff">
</g>
<g id="#b3b3b3ff">
<path fill="#b3b3b3" opacity="1.00" d=" M 152.63 0.00 L 156.76 0.00 C 150.34 14.65 144.68 29.63 138.35 44.33 C 134.72 52.58 132.74 62.37 124.77 67.72 C 111.59 75.95 98.13 83.74 84.87 91.84 C 77.02 96.58 68.02 100.71 63.31 109.05 C 75.82 117.60 89.45 124.26 102.37 132.13 C 96.77 146.52 91.80 161.29 83.69 174.53 C 66.99 165.26 50.55 155.55 34.04 145.95 C 22.23 139.04 9.26 133.26 0.00 122.88 L 0.00 98.97 C 5.18 93.39 11.26 88.71 17.68 84.64 C 62.72 56.53 107.65 28.22 152.63 0.00 Z" />
<path fill="#b3b3b3" opacity="1.00" d=" M 197.15 6.20 C 216.45 15.91 234.25 28.28 252.95 39.05 C 262.81 45.26 274.24 50.07 281.00 60.04 L 281.00 81.94 C 276.19 87.54 270.59 92.53 264.11 96.14 C 246.70 106.45 229.52 117.16 212.06 127.40 C 220.95 141.92 230.77 155.85 239.90 170.22 C 241.87 173.18 240.99 176.78 240.33 180.00 L 191.26 180.00 C 184.44 172.52 179.42 163.66 173.06 155.83 C 171.63 153.37 168.75 154.77 166.84 155.77 C 153.38 163.48 140.51 172.18 127.11 180.00 L 121.96 180.00 C 128.64 165.18 134.65 150.05 141.06 135.11 C 144.85 126.78 147.14 116.67 155.73 111.79 C 175.79 99.31 196.88 88.48 216.44 75.17 C 214.53 71.39 211.85 67.95 208.15 65.81 C 198.36 59.91 188.28 54.47 178.88 47.96 C 184.91 34.02 190.33 19.78 197.15 6.20 Z" />
</g>
</svg>
