<svg xmlns="http://www.w3.org/2000/svg" width="281pt" height="240" version="1.1" viewBox="0 0 281 180"><g id="#ffffffff"><path fill="#fff" d="M 153.03 0.00 L 155.97 0.00 C 154.25 5.68 151.85 11.15 149.40 16.55 C 148.73 18.22 148.10 19.90 147.43 21.56 C 146.09 24.88 144.80 28.21 143.40 31.50 C 142.13 34.17 141.13 36.96 139.83 39.62 C 137.99 44.22 136.01 48.77 134.39 53.46 C 133.85 54.51 133.31 55.56 132.76 56.60 C 131.56 61.19 129.05 65.60 124.46 67.49 C 123.07 68.30 121.73 69.19 120.38 70.05 C 119.13 70.88 117.84 71.64 116.55 72.40 C 114.39 73.42 112.37 74.71 110.38 76.03 C 109.51 76.63 108.62 77.21 107.74 77.78 C 105.64 78.94 103.60 80.21 101.53 81.42 C 100.25 82.17 99.00 82.96 97.73 83.72 C 96.04 84.69 94.39 85.72 92.72 86.72 C 90.93 87.77 89.18 88.89 87.43 90.00 C 86.54 90.60 85.64 91.19 84.73 91.77 C 83.04 92.71 81.39 93.72 79.73 94.72 C 78.06 95.69 76.41 96.71 74.76 97.70 C 73.12 98.66 71.51 99.64 69.88 100.60 C 67.51 101.55 65.74 103.34 64.55 105.58 C 64.58 106.96 64.60 108.34 64.62 109.72 C 66.48 111.45 68.44 113.10 70.68 114.32 C 72.37 115.26 74.02 116.27 75.68 117.27 C 77.60 118.45 79.52 119.61 81.52 120.66 C 82.60 121.19 83.69 121.70 84.78 122.23 C 86.41 123.28 88.05 124.33 89.70 125.34 C 90.68 125.77 91.66 126.20 92.64 126.63 C 93.58 127.34 94.52 128.03 95.48 128.71 C 96.57 129.20 97.67 129.67 98.76 130.15 C 99.84 130.89 100.90 131.67 101.96 132.45 C 101.50 133.82 100.99 135.18 100.47 136.54 C 96.80 145.19 93.71 154.08 89.80 162.62 C 88.99 164.59 88.26 166.59 87.56 168.60 C 86.37 170.60 84.86 172.36 83.22 174.00 C 82.31 173.44 81.39 172.88 80.47 172.34 C 79.32 171.77 78.16 171.22 77.01 170.67 C 75.83 169.88 74.65 169.09 73.46 168.33 C 72.40 167.81 71.33 167.30 70.27 166.79 C 68.62 165.76 66.97 164.72 65.30 163.73 C 63.67 162.76 62.07 161.77 60.42 160.84 C 57.71 159.44 55.15 157.77 52.44 156.36 C 50.35 155.19 48.32 153.94 46.27 152.73 C 44.66 151.75 43.07 150.77 41.44 149.84 C 38.99 148.62 36.68 147.16 34.32 145.78 C 31.89 144.56 29.58 143.13 27.27 141.70 C 25.37 140.52 23.45 139.37 21.44 138.40 C 19.76 137.41 18.10 136.38 16.44 135.35 C 15.32 134.80 14.20 134.27 13.07 133.74 C 12.27 133.19 11.47 132.63 10.67 132.06 C 7.32 130.09 3.92 127.91 1.93 124.45 C 1.45 123.81 0.48 122.54 0.00 121.91 L 0.00 100.01 C 2.09 96.34 5.17 93.34 8.55 90.87 C 9.56 90.23 10.57 89.58 11.59 88.96 C 12.45 88.39 13.32 87.84 14.20 87.29 C 16.03 86.25 17.81 85.12 19.60 84.01 C 20.58 83.30 21.57 82.60 22.58 81.92 C 23.46 81.36 24.34 80.81 25.24 80.28 C 27.05 79.24 28.81 78.11 30.59 76.99 C 31.48 76.39 32.38 75.81 33.29 75.24 C 35.11 74.21 36.88 73.09 38.64 71.97 C 39.51 71.37 40.39 70.79 41.28 70.23 C 43.09 69.21 44.83 68.10 46.60 67.02 C 47.58 66.31 48.56 65.61 49.56 64.93 C 50.46 64.35 51.37 63.79 52.29 63.24 C 54.09 62.21 55.84 61.10 57.60 60.00 C 58.45 59.42 59.31 58.85 60.17 58.29 C 62.03 57.26 63.82 56.12 65.62 55.00 C 66.44 54.43 67.26 53.87 68.09 53.33 C 69.97 52.30 71.78 51.15 73.58 50.00 C 74.47 49.40 75.37 48.81 76.27 48.24 C 78.09 47.22 79.84 46.11 81.59 45.00 C 82.43 44.43 83.27 43.87 84.12 43.32 C 86.00 42.29 87.79 41.13 89.59 39.97 C 90.85 39.13 92.15 38.35 93.45 37.57 C 94.86 36.73 96.24 35.83 97.64 34.98 C 98.60 34.28 99.57 33.60 100.56 32.93 C 101.42 32.38 102.29 31.84 103.17 31.31 C 105.95 29.76 108.58 27.96 111.27 26.25 C 113.08 25.23 114.84 24.10 116.61 22.99 C 117.49 22.39 118.38 21.80 119.28 21.24 C 121.08 20.22 122.82 19.11 124.58 18.01 C 125.43 17.43 126.29 16.86 127.16 16.30 C 129.95 14.76 132.58 12.95 135.28 11.25 C 137.09 10.22 138.84 9.09 140.61 7.98 C 141.48 7.39 142.36 6.81 143.26 6.25 C 145.07 5.22 146.82 4.11 148.59 3.01 C 150.03 1.95 151.51 0.96 153.03 0.00 Z" opacity="1"/><path fill="#fff" d="M 197.23 7.25 C 198.31 7.33 199.39 7.41 200.48 7.48 C 201.47 8.22 202.48 8.95 203.51 9.65 C 205.22 10.59 206.88 11.61 208.56 12.59 C 210.61 13.80 212.62 15.07 214.68 16.27 C 216.64 17.45 218.58 18.66 220.59 19.75 C 221.93 20.64 223.32 21.48 224.70 22.32 C 226.66 23.48 228.60 24.67 230.61 25.73 C 232.91 27.35 235.26 28.89 237.70 30.29 C 239.29 31.22 240.85 32.19 242.44 33.12 C 244.21 34.17 245.95 35.27 247.74 36.29 C 249.39 37.29 251.02 38.31 252.69 39.27 C 254.38 40.27 256.05 41.31 257.74 42.31 C 259.67 43.49 261.61 44.67 263.62 45.73 C 265.94 47.38 268.33 48.93 270.81 50.33 C 271.69 50.84 272.57 51.35 273.45 51.86 C 275.53 53.23 277.29 55.02 278.77 57.03 C 279.47 58.44 280.24 59.82 281.00 61.21 L 281.00 82.02 L 280.52 81.30 C 278.29 85.62 274.48 88.85 270.75 91.86 C 269.01 92.72 267.34 93.73 265.67 94.73 C 263.62 95.94 261.61 97.20 259.55 98.40 C 257.88 99.39 256.24 100.42 254.56 101.40 C 253.27 102.15 252.01 102.94 250.73 103.70 C 248.92 104.76 247.16 105.89 245.39 107.01 C 244.51 107.60 243.63 108.19 242.75 108.76 C 240.64 109.92 238.61 111.19 236.54 112.40 C 235.26 113.15 234.01 113.95 232.73 114.72 C 231.03 115.69 229.36 116.73 227.68 117.75 C 226.02 118.70 224.39 119.70 222.75 120.68 C 221.34 121.50 219.95 122.35 218.57 123.23 C 216.85 124.16 215.16 125.17 213.59 126.34 C 213.02 126.52 211.89 126.89 211.32 127.08 C 212.30 128.51 213.26 129.96 214.27 131.37 C 215.37 133.54 216.67 135.59 218.01 137.62 C 218.70 138.60 219.39 139.59 220.05 140.61 C 222.07 143.57 224.07 146.56 226.00 149.59 C 227.12 151.17 228.18 152.79 229.28 154.38 C 230.90 157.63 233.02 160.59 235.05 163.59 C 235.71 164.58 236.37 165.59 236.99 166.61 C 238.14 168.21 239.25 169.84 240.49 171.39 C 241.11 173.02 241.58 174.71 241.86 176.44 C 240.57 177.61 239.31 178.80 238.05 180.00 L 191.95 180.00 C 190.46 178.63 189.06 177.18 187.69 175.71 C 186.54 173.82 185.16 172.10 183.93 170.27 C 183.64 169.88 183.06 169.12 182.77 168.73 C 181.14 166.34 179.39 164.04 177.75 161.66 C 175.76 158.95 174.05 155.98 171.57 153.68 C 170.07 153.23 168.68 154.41 167.30 154.84 C 166.51 155.48 165.72 156.11 164.91 156.73 C 163.02 157.71 161.20 158.82 159.36 159.88 C 156.39 161.69 153.54 163.69 150.53 165.44 C 149.15 166.23 147.80 167.08 146.42 167.88 C 144.46 169.04 142.53 170.26 140.56 171.40 C 138.89 172.39 137.25 173.42 135.58 174.41 C 134.28 175.15 133.00 175.93 131.69 176.68 C 130.01 177.71 128.39 178.86 126.78 180.00 L 124.17 180.00 C 123.62 179.63 122.53 178.89 121.98 178.52 C 122.51 178.10 123.58 177.27 124.12 176.85 C 124.50 175.38 124.98 173.94 125.51 172.52 C 126.74 170.24 127.67 167.82 128.60 165.41 C 129.25 163.76 129.91 162.12 130.62 160.49 C 131.73 158.24 132.59 155.88 133.59 153.58 C 134.39 151.95 135.09 150.27 135.65 148.55 C 136.19 147.46 136.73 146.38 137.28 145.30 C 138.04 143.37 138.77 141.43 139.59 139.53 C 140.89 136.83 141.90 134.00 143.22 131.31 C 144.70 127.72 146.10 124.09 147.57 120.49 C 147.80 119.97 148.27 118.93 148.51 118.41 C 149.43 116.55 150.73 114.90 152.55 113.84 C 153.46 113.31 154.38 112.78 155.30 112.26 C 157.34 111.07 159.33 109.81 161.40 108.66 C 163.44 107.66 165.37 106.48 167.30 105.29 C 168.98 104.29 170.64 103.26 172.32 102.26 C 174.37 101.05 176.37 99.78 178.46 98.64 C 180.17 97.80 181.82 96.84 183.41 95.78 C 185.48 94.62 187.50 93.36 189.53 92.14 C 191.49 90.97 193.42 89.75 195.42 88.65 C 197.45 87.66 199.37 86.48 201.30 85.29 C 202.94 84.32 204.56 83.32 206.20 82.33 C 207.61 81.53 209.01 80.70 210.41 79.85 C 212.31 78.49 214.04 76.91 215.74 75.31 C 215.40 73.19 214.90 71.11 214.21 69.09 C 212.16 68.07 210.23 66.86 208.24 65.72 C 206.97 64.95 205.71 64.16 204.44 63.39 C 202.09 62.01 199.80 60.54 197.40 59.25 C 196.05 58.36 194.67 57.51 193.27 56.69 C 191.60 55.70 189.94 54.68 188.27 53.70 C 186.62 52.71 184.97 51.71 183.26 50.86 C 181.75 49.77 180.38 48.53 179.03 47.27 C 179.94 45.68 180.83 44.07 181.69 42.45 C 182.29 40.81 182.89 39.16 183.55 37.55 C 184.70 35.28 185.61 32.91 186.60 30.57 C 187.39 28.94 188.12 27.28 188.65 25.55 C 189.17 24.50 189.69 23.46 190.23 22.42 C 191.00 20.46 191.75 18.49 192.59 16.55 C 194.08 13.42 195.01 9.98 197.23 7.25 Z" opacity="1"/></g></svg>