<svg xmlns="http://www.w3.org/2000/svg" width="281pt" height="240" version="1.1" viewBox="0 0 281 180"><g id="#007bffff"><path fill="#007bff" d="M 153.20 0.00 L 154.87 0.00 C 154.97 0.46 155.16 1.39 155.26 1.86 C 147.21 21.29 139.14 40.72 131.10 60.17 C 130.29 61.87 130.01 64.14 128.08 64.99 C 107.94 77.21 87.82 89.45 67.69 101.67 C 65.41 102.79 63.92 105.36 64.19 107.90 C 64.56 110.33 66.55 112.08 68.45 113.43 C 79.51 119.91 90.83 125.95 101.78 132.61 C 96.65 145.01 91.70 157.49 86.60 169.91 C 86.05 171.23 84.79 172.03 83.85 173.05 C 82.69 173.15 81.61 172.89 80.63 172.27 C 56.81 158.46 32.94 144.72 9.13 130.87 C 4.66 128.30 0.82 124.15 0.00 118.90 L 0.00 103.00 C 0.31 97.84 4.28 93.90 8.38 91.26 C 55.07 61.95 101.75 32.65 148.45 3.36 C 150.07 2.30 151.86 1.44 153.20 0.00 Z" opacity="1"/><path fill="#007bff" d="M 196.84 8.65 C 200.19 7.21 202.80 10.21 205.53 11.59 C 226.72 24.37 247.82 37.29 269.01 50.04 C 273.40 52.35 277.74 55.50 279.56 60.30 C 279.66 67.40 279.80 74.55 279.49 81.64 C 277.20 86.31 272.86 89.66 268.44 92.20 C 250.38 103.15 232.28 114.04 214.24 125.01 C 212.87 125.69 211.64 127.16 209.94 126.59 C 220.24 141.83 230.05 157.43 240.26 172.74 C 241.38 174.78 240.43 177.24 238.76 178.68 C 222.90 178.61 207.03 178.64 191.16 178.67 C 185.26 171.22 179.95 163.31 174.29 155.68 C 173.52 154.56 172.45 153.58 172.18 152.19 C 171.62 152.28 170.49 152.45 169.93 152.54 C 155.18 161.96 139.94 170.62 125.17 180.00 L 123.73 180.00 C 123.72 179.64 123.70 178.91 123.69 178.55 C 133.11 157.85 141.32 136.54 150.75 115.90 C 168.96 105.09 187.26 94.42 205.48 83.63 C 209.39 81.29 213.77 79.37 216.40 75.46 C 217.01 72.20 215.57 68.88 212.58 67.36 C 201.83 60.92 191.11 54.42 180.25 48.16 C 185.31 34.86 191.49 21.88 196.84 8.65 Z" opacity="1"/></g></svg>