<svg xmlns="http://www.w3.org/2000/svg" width="281pt" height="240" version="1.1" viewBox="0 0 281 180"><g id="#000000ff"><path fill="#000" d="M 153.19 0.00 L 155.66 0.00 C 155.55 2.83 154.13 5.32 153.11 7.88 C 145.68 25.85 138.18 43.78 130.80 61.77 C 130.15 63.64 128.69 65.05 127.00 66.01 C 108.29 77.28 89.68 88.73 70.96 100.00 C 68.51 101.55 65.24 102.82 64.69 106.05 C 63.90 109.15 66.25 111.79 68.76 113.24 C 79.83 119.74 91.13 125.85 102.17 132.40 C 97.04 144.92 92.09 157.52 86.87 170.01 C 85.85 172.48 82.92 174.49 80.47 172.50 C 57.01 158.98 33.60 145.38 10.15 131.85 C 5.71 129.22 1.33 125.63 0.00 120.40 L 0.00 100.43 C 1.87 95.54 6.14 92.17 10.51 89.59 C 58.05 59.69 105.66 29.90 153.19 0.00 Z" opacity="1"/><path fill="#000" d="M 197.38 7.04 C 198.39 7.08 199.40 7.13 200.41 7.17 C 208.74 12.75 217.59 17.56 226.11 22.85 C 240.76 32.02 255.76 40.65 270.42 49.80 C 275.36 52.39 280.26 56.53 281.00 62.40 L 281.00 79.66 C 280.49 84.62 275.74 87.39 272.63 90.75 C 262.87 96.93 252.69 102.51 243.01 108.84 C 232.51 114.85 222.41 121.63 211.72 127.26 C 221.70 142.72 231.79 158.12 241.87 173.53 C 241.86 174.54 241.86 175.56 241.88 176.58 C 240.72 177.75 239.55 178.91 238.32 180.00 L 191.73 180.00 C 189.04 178.04 187.25 175.22 185.28 172.61 C 180.73 166.21 176.24 159.77 171.49 153.51 C 169.83 154.03 168.20 154.68 166.78 155.70 C 154.72 163.09 142.68 170.52 130.49 177.70 C 129.31 178.35 128.26 179.20 127.19 180.00 L 123.65 180.00 C 123.20 179.62 122.31 178.87 121.86 178.49 C 122.35 178.06 123.34 177.20 123.84 176.76 C 130.84 158.15 139.52 140.14 146.83 121.63 C 148.21 118.62 149.35 115.09 152.61 113.62 C 169.38 103.74 186.16 93.85 202.96 84.01 C 207.14 81.40 211.70 79.26 215.17 75.66 C 215.31 73.07 215.19 69.86 212.52 68.55 C 202.90 62.73 193.26 56.94 183.58 51.21 C 181.64 50.31 180.16 48.75 178.81 47.14 C 181.20 43.75 182.19 39.69 184.04 36.03 C 186.75 29.49 189.63 23.03 192.35 16.50 C 194.05 13.34 194.54 9.50 197.38 7.04 Z" opacity="1"/></g></svg>