<?xml version="1.0" encoding="UTF-8" ?>
<!DOCTYPE svg PUBLIC "-//W3C//DTD SVG 1.1//EN" "http://www.w3.org/Graphics/SVG/1.1/DTD/svg11.dtd">
<svg width="105pt" height="105pt" viewBox="0 0 105 105" version="1.1" xmlns="http://www.w3.org/2000/svg">
<g id="#fefefeff">
<path fill="#fefefe" opacity="1.00" d=" M 49.22 48.90 C 49.74 48.77 50.77 48.50 51.29 48.36 C 51.47 50.81 51.47 53.27 51.13 55.70 C 49.74 53.78 49.44 50.25 46.57 50.01 C 47.00 49.50 47.44 48.99 47.88 48.48 L 49.22 48.90 Z" />
<path fill="#fefefe" opacity="1.00" d=" M 45.44 65.47 C 37.45 63.84 37.92 50.72 45.06 48.07 C 45.49 48.84 45.94 49.60 46.39 50.37 L 44.87 50.10 C 44.63 54.59 44.83 59.09 44.70 63.58 C 45.55 63.88 46.39 64.20 47.23 64.53 C 48.78 63.04 49.92 61.19 51.57 59.81 C 51.60 62.94 48.75 66.29 45.44 65.47 Z" />
</g>
<g id="#010101ff">
<path fill="#010101" opacity="1.00" d=" M 90.00 25.78 C 93.52 24.18 97.14 22.74 100.87 21.72 C 100.11 24.65 97.63 26.04 95.13 27.27 C 92.56 30.77 89.25 33.82 85.15 35.42 C 82.03 36.54 80.28 39.57 79.38 42.59 C 77.83 42.66 76.29 42.68 74.75 42.65 C 73.48 44.82 73.20 47.30 73.19 49.76 C 75.43 53.81 80.15 56.67 80.70 61.43 C 77.61 59.81 73.46 59.42 71.14 62.53 C 69.30 60.27 66.35 60.47 63.72 60.54 C 62.91 63.08 62.39 65.72 61.23 68.14 C 55.05 70.90 48.99 75.23 41.93 74.87 C 40.19 74.85 38.37 75.93 37.55 77.47 C 37.44 78.87 37.72 80.26 37.68 81.66 C 36.31 81.75 34.95 81.54 33.59 81.41 C 33.14 79.65 32.36 78.00 31.33 76.51 C 28.31 76.74 25.06 78.46 22.15 76.90 C 19.84 75.70 17.46 74.54 14.81 74.35 C 11.46 72.73 11.63 68.79 9.92 66.04 C 9.68 65.71 9.21 65.05 8.97 64.72 C 8.11 60.62 6.15 56.67 6.64 52.40 C 8.69 53.49 10.41 56.16 13.07 55.25 C 15.63 54.10 16.40 51.10 17.75 48.87 C 21.76 47.63 26.09 48.03 29.67 50.27 C 30.27 49.96 31.47 49.35 32.06 49.04 C 32.94 45.12 32.79 41.06 33.58 37.15 C 37.20 40.69 42.68 39.09 47.15 40.28 C 52.40 41.90 57.94 40.79 63.09 39.33 C 64.27 38.38 65.44 37.25 67.01 37.01 C 72.91 36.42 78.96 34.09 82.90 29.52 C 85.49 28.78 88.48 28.28 90.00 25.78 M 49.22 48.90 L 47.88 48.48 C 47.44 48.99 47.00 49.50 46.57 50.01 C 49.44 50.25 49.74 53.78 51.13 55.70 C 51.47 53.27 51.47 50.81 51.29 48.36 C 50.77 48.50 49.74 48.77 49.22 48.90 M 45.44 65.47 C 48.75 66.29 51.60 62.94 51.57 59.81 C 49.92 61.19 48.78 63.04 47.23 64.53 C 46.39 64.20 45.55 63.88 44.70 63.58 C 44.83 59.09 44.63 54.59 44.87 50.10 L 46.39 50.37 C 45.94 49.60 45.49 48.84 45.06 48.07 C 37.92 50.72 37.45 63.84 45.44 65.47 Z" />
</g>
</svg>
