<svg xmlns="http://www.w3.org/2000/svg" width="370pt" height="370pt" version="1.1" viewBox="0 0 370 370"><g id="#050d16ff"><path fill="#050d16" d="M 164.49 8.72 C 190.03 5.97 216.32 7.82 240.70 16.23 C 268.12 24.63 292.72 40.84 312.90 61.04 C 325.63 74.15 336.24 89.26 344.57 105.51 C 356.97 130.74 363.48 158.87 363.19 187.00 C 362.48 218.56 353.83 250.16 337.00 276.99 C 331.41 285.57 325.91 294.32 318.64 301.61 C 299.21 324.21 273.59 341.21 245.63 351.37 C 216.11 361.78 183.86 364.58 153.10 358.58 C 135.01 354.97 117.25 349.13 101.20 339.93 C 83.08 330.24 66.79 317.16 53.36 301.61 C 47.09 295.34 42.15 287.95 37.32 280.56 C 20.05 254.71 10.79 223.96 9.00 193.04 C 7.06 151.31 20.26 108.97 46.08 76.06 C 65.17 51.55 90.78 32.10 119.54 20.31 C 134.06 14.87 149.03 10.44 164.49 8.72 M 165.52 16.76 C 140.28 19.78 115.81 28.71 94.48 42.51 C 65.39 61.29 42.17 89.11 29.26 121.27 C 15.43 155.23 13.21 193.73 22.91 229.07 C 30.94 258.53 47.14 285.71 69.31 306.70 C 94.49 330.95 127.41 347.03 162.03 351.89 C 195.12 356.66 229.63 351.39 259.67 336.66 C 288.75 322.59 313.59 299.95 330.41 272.38 C 346.38 246.24 355.02 215.68 355.04 185.04 C 355.20 154.29 346.67 123.59 330.75 97.29 C 313.38 68.59 287.34 45.19 256.87 31.13 C 228.56 17.90 196.51 12.98 165.52 16.76 Z" opacity="1"/></g><g id="#1a53e4ff"><path fill="#1a53e4" d="M 166.45 6.69 C 202.00 2.57 238.66 9.92 270.21 26.71 C 314.21 50.12 347.79 92.62 359.52 141.14 C 369.48 179.57 365.54 221.25 349.46 257.46 C 341.14 275.43 330.09 292.15 316.66 306.71 C 291.51 333.57 258.04 352.60 221.96 359.97 C 189.07 366.26 154.30 364.14 122.93 352.11 C 107.56 346.04 92.83 338.25 79.56 328.37 C 70.43 321.25 61.62 313.67 53.82 305.09 C 34.06 282.86 18.96 256.10 12.23 227.01 C 2.61 188.83 6.55 147.56 22.56 111.65 C 33.16 88.53 48.33 67.34 67.55 50.60 C 94.91 26.16 130.00 10.69 166.45 6.69 M 164.49 8.72 C 149.03 10.44 134.06 14.87 119.54 20.31 C 90.78 32.10 65.17 51.55 46.08 76.06 C 20.26 108.97 7.06 151.31 9.00 193.04 C 10.79 223.96 20.05 254.71 37.32 280.56 C 42.15 287.95 47.09 295.34 53.36 301.61 C 66.79 317.16 83.08 330.24 101.20 339.93 C 117.25 349.13 135.01 354.97 153.10 358.58 C 183.86 364.58 216.11 361.78 245.63 351.37 C 273.59 341.21 299.21 324.21 318.64 301.61 C 325.91 294.32 331.41 285.57 337.00 276.99 C 353.83 250.16 362.48 218.56 363.19 187.00 C 363.48 158.87 356.97 130.74 344.57 105.51 C 336.24 89.26 325.63 74.15 312.90 61.04 C 292.72 40.84 268.12 24.63 240.70 16.23 C 216.32 7.82 190.03 5.97 164.49 8.72 Z" opacity="1"/><path fill="#1a53e4" d="M 165.52 16.76 C 196.51 12.98 228.56 17.90 256.87 31.13 C 287.34 45.19 313.38 68.59 330.75 97.29 C 346.67 123.59 355.20 154.29 355.04 185.04 C 355.02 215.68 346.38 246.24 330.41 272.38 C 313.59 299.95 288.75 322.59 259.67 336.66 C 229.63 351.39 195.12 356.66 162.03 351.89 C 127.41 347.03 94.49 330.95 69.31 306.70 C 47.14 285.71 30.94 258.53 22.91 229.07 C 13.21 193.73 15.43 155.23 29.26 121.27 C 42.17 89.11 65.39 61.29 94.48 42.51 C 115.81 28.71 140.28 19.78 165.52 16.76 M 74.29 89.30 C 70.27 90.02 66.72 93.83 66.87 98.04 C 66.81 113.69 66.82 129.36 66.86 145.02 C 66.68 148.64 69.16 152.03 72.47 153.35 C 75.82 154.56 79.47 154.16 82.96 154.21 C 87.62 154.04 92.34 154.64 96.94 153.74 C 101.22 152.79 104.01 148.37 103.78 144.11 C 103.82 129.05 103.80 113.99 103.78 98.93 C 104.11 93.72 99.43 88.61 94.09 89.16 C 87.49 89.26 80.88 88.97 74.29 89.30 M 125.76 96.05 C 124.96 99.78 126.81 103.34 128.19 106.69 C 149.81 160.13 171.44 213.56 193.06 266.99 C 194.50 270.38 195.48 274.19 198.16 276.85 C 202.41 280.03 208.04 279.22 213.02 279.30 C 218.54 279.05 224.25 280.03 229.62 278.36 C 232.75 277.46 234.45 274.47 235.56 271.63 C 258.29 215.36 281.13 159.12 303.83 102.84 C 306.66 97.54 303.27 89.86 297.09 89.25 C 289.38 89.09 281.65 89.13 273.94 89.23 C 270.07 89.28 267.09 92.41 265.87 95.87 C 248.92 138.24 232.39 180.79 215.36 223.13 C 213.16 219.22 211.82 214.93 210.13 210.80 C 198.85 182.68 187.87 154.45 176.48 126.38 C 180.61 125.40 184.86 125.92 189.06 125.83 C 199.05 125.78 209.05 125.90 219.04 125.79 C 223.65 125.94 227.86 121.61 227.85 117.05 C 228.03 111.04 227.94 105.01 227.90 99.00 C 228.30 93.69 223.41 88.59 218.04 89.15 C 190.34 89.20 162.64 89.14 134.94 89.18 C 130.73 88.94 126.69 91.93 125.76 96.05 M 72.32 165.33 C 69.10 166.89 66.59 170.25 66.84 173.94 C 66.82 204.97 66.86 235.99 66.82 267.01 C 66.79 269.53 66.95 272.29 68.85 274.18 C 71.68 277.88 76.86 277.61 81.03 277.70 C 86.37 277.51 91.80 278.17 97.06 277.08 C 101.65 276.29 104.12 271.31 103.81 266.99 C 103.77 236.30 103.82 205.61 103.79 174.92 C 104.26 170.21 100.84 165.24 96.00 164.73 C 91.68 164.36 87.34 164.67 83.01 164.58 C 79.46 164.72 75.72 164.07 72.32 165.33 Z" opacity="1"/></g><g id="#28ecdbff"><path fill="#28ecdb" d="M 74.29 89.30 C 80.88 88.97 87.49 89.26 94.09 89.16 C 99.43 88.61 104.11 93.72 103.78 98.93 C 103.80 113.99 103.82 129.05 103.78 144.11 C 104.01 148.37 101.22 152.79 96.94 153.74 C 92.34 154.64 87.62 154.04 82.96 154.21 C 79.47 154.16 75.82 154.56 72.47 153.35 C 69.16 152.03 66.68 148.64 66.86 145.02 C 66.82 129.36 66.81 113.69 66.87 98.04 C 66.72 93.83 70.27 90.02 74.29 89.30 Z" opacity="1"/><path fill="#28ecdb" d="M 125.76 96.05 C 126.69 91.93 130.73 88.94 134.94 89.18 C 162.64 89.14 190.34 89.20 218.04 89.15 C 223.41 88.59 228.30 93.69 227.90 99.00 C 227.94 105.01 228.03 111.04 227.85 117.05 C 227.86 121.61 223.65 125.94 219.04 125.79 C 209.05 125.90 199.05 125.78 189.06 125.83 C 184.86 125.92 180.61 125.40 176.48 126.38 C 187.87 154.45 198.85 182.68 210.13 210.80 C 211.82 214.93 213.16 219.22 215.36 223.13 C 232.39 180.79 248.92 138.24 265.87 95.87 C 267.09 92.41 270.07 89.28 273.94 89.23 C 281.65 89.13 289.38 89.09 297.09 89.25 C 303.27 89.86 306.66 97.54 303.83 102.84 C 281.13 159.12 258.29 215.36 235.56 271.63 C 234.45 274.47 232.75 277.46 229.62 278.36 C 224.25 280.03 218.54 279.05 213.02 279.30 C 208.04 279.22 202.41 280.03 198.16 276.85 C 195.48 274.19 194.50 270.38 193.06 266.99 C 171.44 213.56 149.81 160.13 128.19 106.69 C 126.81 103.34 124.96 99.78 125.76 96.05 Z" opacity="1"/><path fill="#28ecdb" d="M 72.32 165.33 C 75.72 164.07 79.46 164.72 83.01 164.58 C 87.34 164.67 91.68 164.36 96.00 164.73 C 100.84 165.24 104.26 170.21 103.79 174.92 C 103.82 205.61 103.77 236.30 103.81 266.99 C 104.12 271.31 101.65 276.29 97.06 277.08 C 91.80 278.17 86.37 277.51 81.03 277.70 C 76.86 277.61 71.68 277.88 68.85 274.18 C 66.95 272.29 66.79 269.53 66.82 267.01 C 66.86 235.99 66.82 204.97 66.84 173.94 C 66.59 170.25 69.10 166.89 72.32 165.33 Z" opacity="1"/></g></svg>