<svg xmlns="http://www.w3.org/2000/svg" width="151pt" height="86pt" version="1.1" viewBox="0 0 151 86"><g id="#1d1d1bff"><path fill="#1d1d1b" d="M 27.87 2.69 C 38.95 0.57 51.01 3.18 59.81 10.39 C 58.11 14.26 56.57 18.41 53.57 21.49 C 51.14 23.42 48.25 21.18 45.91 20.20 C 41.14 17.41 35.27 15.93 29.91 17.88 C 25.79 19.24 23.71 24.56 25.70 28.38 C 27.56 31.32 31.04 32.56 34.14 33.74 C 41.85 36.50 50.64 38.25 56.30 44.68 C 63.35 53.17 62.07 66.32 55.96 74.98 C 51.48 81.50 43.75 84.48 36.29 86.00 L 27.80 86.00 C 19.33 84.10 10.62 81.35 4.27 75.13 C 6.18 71.84 7.88 68.38 10.40 65.49 C 11.45 64.14 13.32 63.50 14.97 64.03 C 18.26 65.12 20.99 67.37 24.13 68.79 C 28.81 71.03 34.58 71.53 39.31 69.20 C 42.88 67.34 43.90 62.72 43.02 59.06 C 42.16 55.85 38.98 54.10 36.11 52.94 C 28.96 50.19 20.93 49.14 14.77 44.24 C 7.36 38.26 5.81 27.34 8.67 18.66 C 11.49 10.29 19.36 4.38 27.87 2.69 Z" opacity="1"/><path fill="#1d1d1b" d="M 93.61 4.95 C 102.60 1.58 112.79 1.57 121.78 4.97 C 119.20 9.89 116.46 14.73 113.64 19.51 C 109.66 19.01 105.64 19.08 101.65 19.43 C 98.85 14.67 96.15 9.85 93.61 4.95 Z" opacity="1"/><path fill="#1d1d1b" d="M 70.53 26.27 C 74.61 17.62 81.65 10.47 90.25 6.28 C 92.21 11.54 93.47 17.04 94.78 22.50 C 91.67 24.91 88.88 27.72 86.53 30.88 C 81.13 29.61 75.69 28.33 70.53 26.27 Z" opacity="1"/><path fill="#1d1d1b" d="M 124.90 6.39 C 133.78 10.23 140.93 17.76 144.86 26.56 C 139.61 28.06 134.36 29.56 129.09 30.96 C 126.41 27.89 123.60 24.92 120.54 22.22 C 121.90 16.92 123.34 11.64 124.90 6.39 Z" opacity="1"/><path fill="#1d1d1b" d="M 69.10 29.77 C 74.07 32.28 78.93 35.01 83.56 38.08 C 83.05 41.99 83.05 45.96 83.59 49.87 C 78.95 52.96 74.06 55.67 69.11 58.23 C 65.90 49.10 65.91 38.91 69.10 29.77 Z" opacity="1"/><path fill="#1d1d1b" d="M 131.80 38.00 C 136.47 35.05 141.29 32.34 146.17 29.74 C 149.50 38.84 149.48 49.14 146.17 58.24 C 141.30 55.65 136.51 52.91 131.82 50.02 C 132.29 46.03 132.31 41.99 131.80 38.00 Z" opacity="1"/><path fill="#1d1d1b" d="M 70.51 61.72 C 75.65 59.61 81.11 58.43 86.48 57.06 C 88.89 60.21 91.68 63.06 94.81 65.50 C 93.47 70.95 92.19 76.43 90.26 81.70 C 81.65 77.52 74.62 70.35 70.51 61.72 Z" opacity="1"/><path fill="#1d1d1b" d="M 120.52 65.73 C 123.56 63.03 126.43 60.14 129.03 57.01 C 134.32 58.39 139.58 59.90 144.84 61.39 C 140.97 70.26 133.73 77.65 124.92 81.66 C 123.34 76.38 121.92 71.06 120.52 65.73 Z" opacity="1"/></g><g id="#009fe3ff"><path fill="#009fe3" d="M 107.67 57.69 C 112.42 66.12 117.15 74.58 121.87 83.04 C 112.79 86.35 102.56 86.43 93.51 82.99 C 98.22 74.55 102.97 66.14 107.67 57.69 Z" opacity="1"/></g></svg>